<svg xmlns="http://www.w3.org/2000/svg" width="326.57" height="126.611"><g fill="#f5bc00"><path d="M38.171 53.216l24.588-24.587 24.601 24.6 14.307-14.307L62.759.013 23.864 38.909zm-24.41-4.206l14.307 14.306L13.76 77.625-.547 63.318zm24.41 24.411l24.588 24.587 24.6-24.599 14.315 14.299-.007.008-38.908 38.909-38.896-38.896-.02-.02zm87.895-10.096L111.76 77.633 97.452 63.326l14.307-14.308z"/><path d="M77.271 63.312h.006L62.759 48.793 52.03 59.523h-.001l-1.232 1.232-2.543 2.543-.02.021.02.02 14.505 14.505 14.518-14.517.007-.008z"/></g><path d="M208.86 95.286l-2.375-9.024 8.265.38c2.026 0 3.04-1.045 3.04-3.136v-27.93h-22.04v51.396h-9.12V55.576h-22.135v39.9h-9.116v-48.64h31.25V34.012c-10.64.76-22.135 1.14-34.485 1.14l-1.964-8.455c30.21 0 55.1-2.406 76.254-7.22l3.984 7.885c-9.69 2.534-20.863 4.498-34.669 5.89v13.585h31.156v38.665c0 6.524-3.195 9.785-9.211 9.785h-8.834zm35.026-41.229h26.344c3.103-5.763 4.593-7.917 6.621-11.971h10.385c-1.458 2.66-3.579 6.65-6.365 11.971h45.696v8.739H309.94c-3.864 9.438-7.949 16.879-12.256 22.325 8.677 3.674 18.303 8.36 28.881 14.061l-6.176 7.979c-9.943-5.764-19.697-10.861-29.26-15.295-10.768 9.372-24.795 14.281-42.085 14.726l-5.225-8.36c15.516-.063 28.151-3.546 37.905-10.45-9.058-3.8-17.575-6.966-25.555-9.5a628.894 628.894 0 0 0 9.215-15.485h-21.499v-8.74zm82.684-26.316v21.47h-9.774V36.413h-63.244l-.01 12.703h-9.638V27.741h37.681c-1.33-2.912-2.693-5.478-4.085-7.695l10.165-.03c1.33 2.851 2.66 4.306 3.99 7.726h34.915zm-50.545 35.055c-2.914 4.94-5.289 8.899-7.125 11.875 7.22 2.154 13.837 4.403 19.855 6.745 4.561-5.13 8.327-11.336 11.305-18.62h-24.035z" fill="#f5bc00"/></svg>